<?xml version="1.0" encoding="UTF-8"?>
<svg width="3157px" height="305px" viewBox="0 0 3157 305" xmlns="http://www.w3.org/2000/svg" xmlns:xlink="http://www.w3.org/1999/xlink" version="1.1">
 <!-- Generated by Pixelmator Pro 2.0.8 -->
 <g id="White-logo---no-background-copy">
  <g id="SvgjsG1897">
   <path id="Path" d="M201.988 138.005 C233.11 146.392 262.563 174.122 262.592 214.908 262.63 268.309 229.016 301.13 155.853 301.183 L39.802 301.266 39.59 6.933 149.335 6.854 C210.304 6.81 241.023 41.267 241.052 80.792 241.074 111.907 220.904 129.582 201.988 138.005 Z M143.487 60.679 L101.019 60.71 101.061 119.997 143.529 119.966 C169.599 119.947 180.102 107.746 180.089 90.086 180.076 71.165 167.874 60.662 143.487 60.679 Z M152.451 247.364 C186.089 247.34 201.216 233.453 201.197 207.384 201.181 185.099 186.033 169.552 149.872 169.578 L101.097 169.613 101.153 247.401 Z M534.282 300.911 L469.108 300.957 406.387 203.032 405.546 203.032 363.919 203.062 363.989 301.033 302.599 301.077 302.388 6.744 405.404 6.67 C471.419 6.622 514.337 46.537 514.38 106.665 514.408 146.61 495.088 176.478 462.302 191.638 Z M363.818 63.044 L363.88 150.082 401.723 150.055 C431.997 150.033 453.013 138.245 452.99 106.709 452.968 75.594 431.935 62.995 401.661 63.016 Z M633.473 244.495 L757.934 244.406 757.975 300.75 625.104 300.845 572.124 300.883 571.913 6.55 633.302 6.506 753.979 6.419 754.019 62.763 633.343 62.85 633.388 125.08 724.631 125.015 724.671 180.518 633.427 180.583 Z M994.491 6.246 L1055.881 6.202 1056.092 300.536 1009.419 300.569 863.383 118.187 863.514 300.674 802.125 300.718 801.913 6.385 849.427 6.351 994.623 189.154 Z M1211.457 6.091 C1295.131 6.03 1360.773 71.578 1360.831 151.468 1360.89 234.722 1295.343 300.364 1211.668 300.424 L1106.549 300.499 1106.338 6.166 Z M1211.206 242.398 C1267.55 242.358 1297.795 201.55 1297.759 151.513 1297.725 104.841 1267.422 64.076 1211.078 64.117 L1167.769 64.148 1167.897 242.429 Z M1464.334 243.898 L1588.795 243.809 1588.835 300.153 1455.965 300.248 1402.985 300.286 1402.773 5.953 1464.163 5.909 1584.839 5.822 1584.88 62.166 1464.203 62.253 1464.248 124.483 1555.491 124.418 1555.531 179.92 1464.288 179.986 Z M1825.352 5.649 L1886.741 5.605 1886.952 299.938 1840.28 299.972 1694.244 117.59 1694.375 300.077 1632.985 300.121 1632.774 5.788 1680.287 5.754 1825.483 188.556 Z" fill="#ffffff" fill-opacity="1" stroke="none"/>
  </g>
  <g id="SvgjsG1898">
   <path id="Path-1" d="M2300.378 136.483 C2330.343 144.558 2358.703 171.259 2358.731 210.53 2358.768 261.947 2326.402 293.55 2255.956 293.6 L2144.215 293.681 2144.011 10.279 2249.68 10.203 C2308.385 10.161 2337.963 43.338 2337.99 81.395 2338.012 111.354 2318.591 128.372 2300.378 136.483 Z M2244.049 62.029 L2203.158 62.058 2203.199 119.144 2244.09 119.114 C2269.191 119.096 2279.304 107.348 2279.292 90.344 2279.279 72.125 2267.531 62.012 2244.049 62.029 Z M2252.68 241.781 C2285.069 241.757 2299.634 228.387 2299.616 203.285 2299.601 181.828 2285.015 166.858 2250.197 166.883 L2203.234 166.917 2203.288 241.816 Z M2623.569 293.336 L2602.075 242.744 2465.232 242.842 2443.811 293.465 2381.058 293.51 2506.766 10.018 2560.207 9.98 2686.727 293.291 Z M2485.845 194.649 L2581.393 194.581 2533.538 82.469 Z M2811.622 4.941 C2861.419 4.905 2893.021 36.056 2908.021 63.576 L2864.314 89.519 C2848.914 68.072 2833.926 57.152 2811.659 57.168 2791.821 57.182 2777.255 68.933 2777.267 85.128 2777.278 101.322 2786.596 109.817 2808.868 117.899 L2828.307 124.767 C2891.076 146.989 2915.793 174.907 2915.821 213.774 2915.862 270.859 2861.631 299.238 2813.453 299.273 2762.44 299.309 2722.742 268.973 2708.948 229.307 L2754.276 205.388 C2764.412 226.028 2781.431 245.854 2813.415 245.831 2836.491 245.815 2854.298 235.68 2854.283 214.628 2854.268 194.384 2842.116 185.486 2811.338 173.768 L2793.925 167.707 C2752.214 152.757 2718.595 132.134 2718.56 82.741 2718.527 37.396 2761.014 4.977 2811.622 4.941 Z M3046.845 4.772 C3096.643 4.736 3128.245 35.887 3143.244 63.407 L3099.538 89.349 C3084.138 67.903 3069.15 56.983 3046.883 56.999 3027.045 57.013 3012.478 68.764 3012.49 84.959 3012.501 101.153 3021.819 109.648 3044.093 117.73 L3063.53 124.598 C3126.3 146.82 3151.016 174.738 3151.044 213.605 3151.085 270.69 3096.854 299.069 3048.676 299.104 2997.664 299.14 2957.966 268.804 2944.172 229.138 L2989.499 205.219 C2999.636 225.859 3016.654 245.685 3048.638 245.662 3071.715 245.645 3089.521 235.511 3089.506 214.458 3089.492 194.215 3077.34 185.317 3046.562 173.598 L3029.148 167.538 C2987.437 152.588 2953.819 131.965 2953.783 82.572 2953.751 37.227 2996.238 4.808 3046.845 4.772 Z" fill="#007bff" fill-opacity="1" stroke="none"/>
  </g>
 </g>
 <g id="SvgjsG1896-copy">
  <path id="Path-2" d="M4.71 6.958 L174.576 6.836 C184.441 6.829 193.715 8.894 202.399 13.03 211.083 17.167 218.682 22.587 225.197 29.29 231.713 35.993 236.848 43.684 240.602 52.362 244.357 61.04 246.238 69.72 246.244 78.401 246.257 96.552 241.73 111.253 232.663 122.505 223.596 133.757 211.764 141.953 197.168 147.093 216.11 149.842 231.999 158.116 244.832 171.917 257.664 185.718 264.089 202.879 264.104 223.396 264.112 233.655 262.047 243.422 257.911 252.698 253.774 261.974 248.256 270.165 241.356 277.272 234.456 284.38 226.273 290.107 216.806 294.454 207.339 298.801 197.279 300.979 186.625 300.986 L4.922 301.117 4.71 6.958 Z" fill="#ffffff" fill-opacity="1" stroke="none"/>
 </g>
 <g id="SvgjsG1896-copy-1">
  <path id="Path-3" d="M2109.543 9.756 L2273.81 9.637 C2283.35 9.63 2292.318 11.627 2300.716 15.628 2309.114 19.628 2316.462 24.87 2322.763 31.352 2329.064 37.834 2334.03 45.271 2337.66 53.663 2341.291 62.055 2343.11 70.449 2343.116 78.843 2343.129 96.396 2338.751 110.613 2329.982 121.494 2321.214 132.375 2309.773 140.3 2295.658 145.271 2313.975 147.929 2329.34 155.931 2341.75 169.277 2354.16 182.623 2360.373 199.218 2360.387 219.059 2360.395 228.98 2358.398 238.425 2354.398 247.395 2350.398 256.365 2345.062 264.286 2338.389 271.16 2331.716 278.033 2323.803 283.571 2314.648 287.775 2305.493 291.979 2295.765 294.085 2285.462 294.092 L2109.748 294.218 2109.543 9.756 Z" fill="#007bff" fill-opacity="1" stroke="none"/>
 </g>
</svg>
